<?xml version="1.0" standalone="no"?>
<!DOCTYPE svg PUBLIC "-//W3C//DTD SVG 20010904//EN"
 "http://www.w3.org/TR/2001/REC-SVG-20010904/DTD/svg10.dtd">
<svg version="1.0" xmlns="http://www.w3.org/2000/svg"
 width="740.000000pt" height="740.000000pt" viewBox="0 0 740.000000 740.000000"
 preserveAspectRatio="xMidYMid meet">
<metadata>
Created by potrace 1.11, written by Peter Selinger 2001-2013
</metadata>
<g transform="translate(0.000000,740.000000) scale(0.100000,-0.100000)"
fill="#000000" stroke="none">
<path d="M0 3700 l0 -3700 3700 0 3700 0 0 3700 0 3700 -3700 0 -3700 0 0
-3700z m4845 1986 l1110 -444 3 -151 3 -151 -149 0 -149 0 -6 -29 c-8 -38 -54
-91 -94 -107 -27 -12 -338 -14 -1854 -14 -1658 0 -1824 1 -1855 16 -42 20 -83
68 -91 105 l-5 29 -150 0 -149 0 3 151 3 151 1120 448 c616 247 1127 447 1135
445 8 -3 515 -205 1125 -449z m-2185 -1946 l0 -900 150 0 150 0 0 900 0 900
300 0 300 0 0 -900 0 -900 150 0 150 0 0 900 0 900 300 0 300 0 0 -900 0 -900
150 0 150 0 0 900 0 900 300 0 300 0 0 -900 0 -900 84 0 c91 0 138 -14 172
-52 37 -40 44 -64 44 -157 l0 -91 -1950 0 -1950 0 0 90 c0 104 11 135 67 177
33 26 45 28 135 31 l98 4 0 899 0 899 300 0 300 0 0 -900z m3201 -1364 c36
-15 69 -46 88 -83 7 -13 11 -84 11 -187 l0 -166 -2250 0 -2250 0 0 165 c0 200
9 224 95 269 27 14 247 16 2151 16 1805 0 2127 -2 2155 -14z"/>
</g>
</svg>
